PathFileType	4	(X/Y/Z)	2_2_101_p1_0-290_filt_butterworth.trc
DataRate	CameraRate	NumFrames	NumMarkers	Units	OrigDataRate	OrigDataStartFrame	OrigNumFrames
60.0	60.0	6	27	m	60.0	108	290
Frame#	Time	RHip			RKnee			RAnkle			RBigToe			RSmallToe			RHeel			LHip			LKnee			LAnkle			LBigToe			LSmallToe			LHeel			Neck			Head			Nose			RShoulder			RElbow			RWrist			RThumb			RIndex			RPinky			LShoulder			LElbow			LWrist			LThumb			LIndex			LPinky			
		X1	Y1	Z1	X2	Y2	Z2	X3	Y3	Z3	X4	Y4	Z4	X5	Y5	Z5	X6	Y6	Z6	X7	Y7	Z7	X8	Y8	Z8	X9	Y9	Z9	X10	Y10	Z10	X11	Y11	Z11	X12	Y12	Z12	X13	Y13	Z13	X14	Y14	Z14	X15	Y15	Z15	X16	Y16	Z16	X17	Y17	Z17	X18	Y18	Z18	X19	Y19	Z19	X20	Y20	Z20	X21	Y21	Z21	X22	Y22	Z22	X23	Y23	Z23	X24	Y24	Z24	X25	Y25	Z25	X26	Y26	Z26	X27	Y27	Z27	
108	1.8	0.302584845039357	0.542072237753945	0.9555715384974903	0.29643768663254155	0.7147111945250613	1.4118042907388717	0.28479982354373334	0.8942803874180144	1.8169353437739568	0.3030073299334755	0.6737461357456707	1.8752696260590618	0.35826554777731984	0.7641766299407237	1.8894538243204377	0.2706937388730374	0.9134950284808936	1.8546210324494543	0.08164621183318352	0.5175165945692781	0.9476471234132192	0.07020394425643478	0.7048333805107978	1.403636595893631	0.06900506589940009	0.8791195435039634	1.8174331712765204	0.10692561351333983	0.7105085142728721	1.8960010634545477	0.04448834131610531	0.7028910811791348	1.872505229994041	0.08633430951064762	0.9757073667760233	1.8961853708638976	0.2010873306893947	0.33310034509044184	0.2973859152152529	0.20838021367980258	0.10221925084977604	0.08959444733770201	0.20196144968857088	0.11838096092841849	0.24085377659816506	0.37739037808425346	0.37060669852739225	0.35701239618832387	0.4226726185184735	0.4762410340046607	0.6613972175054701	0.3562223458217145	0.39444752341842726	0.8915248284797386	0.24836155356225942	0.34545459392093997	0.9749658048384706	0.2673586492480421	0.37535517816103087	0.997031999635428	0.28356721667974	0.41512164731612394	1.0024812599349717	0.04013636483245004	0.3900436370532582	0.35492334211317483	-0.07385084100973449	0.47682921717379284	0.6220345151613561	0.03343777412727591	0.3431418496866303	0.8183582771507661	0.12271929045771457	0.2880396027439214	0.8719451097558732	0.12421013140671172	0.29792686252285266	0.902786206376831	0.10494591858142358	0.32341702979237247	0.9245161777921542
109	1.8166666666666669	0.30264280003684985	0.5420700611830339	0.9555922295858247	0.29632638751531387	0.7148395535182426	1.4107427744697758	0.2846610073974033	0.8945560945118028	1.8159492279731682	0.30303717969733934	0.6737114699184805	1.8750862488750952	0.3583079865443423	0.7642114732199862	1.8894401378697052	0.2705613001082877	0.9138480027970188	1.8536471388890163	0.08195085625185243	0.5183305854889155	0.9476921526625848	0.0702595402946934	0.704858200647218	1.4037853567148062	0.06899944487433675	0.879297905602128	1.8174680146800322	0.1068941027522445	0.7105038834924512	1.8960352317053093	0.04446754134222787	0.7029225632947461	1.8725233215256325	0.08743575200356118	0.9766074117277697	1.8982378635639032	0.20154159985233128	0.3359100165499736	0.2949548918815515	0.20881864200019207	0.10471127352024079	0.08865979879558848	0.20197683087091833	0.11815426266999471	0.24080918288343925	0.3777088530460843	0.37188442242499914	0.35679914542619007	0.42273550105378976	0.4762586534220939	0.6623223791983676	0.3559641872234136	0.3932585222214566	0.8928868913204665	0.24782493294271385	0.3443101346067271	0.9764838406509708	0.26543567030028503	0.3756101039187141	0.9987353286416423	0.2836419897949368	0.41503025370737745	1.0034519956147532	0.04003886664499424	0.38994697683776847	0.3548360699928808	-0.07519620191159149	0.47559964545598093	0.6222705261005069	0.03313270689650611	0.34127206263745613	0.817156806072996	0.12259120378816239	0.2877189829944613	0.8714152671532975	0.1231024458616238	0.2965746283948012	0.9008755540945471	0.10270104831161773	0.32331435712704965	0.9243106577607465
110	1.8333333333333333	0.30256014258797437	0.5420692963330679	0.9558077790035102	0.29629348679640743	0.7148851384800718	1.4103937093454557	0.2846053030793604	0.8947011736053626	1.8155731680593363	0.3030338317391434	0.6737515177966931	1.875003004741915	0.35831112679788635	0.7642918366785029	1.889467202967131	0.27054033850717174	0.9141209265750818	1.853229505874252	0.08223752451891451	0.5181919749140256	0.9478043022034763	0.07026782784923137	0.7048762616995022	1.40376992846765	0.06903758631455585	0.8797030617057247	1.8174398368213955	0.10689146158098368	0.7105086719592965	1.8960757263484669	0.044462166338161024	0.7029289359142535	1.8725516261466	0.0880280007467229	0.9766765267679882	1.8983599292292712	0.20209372884284463	0.33688887484550106	0.2927217996248909	0.20890524662913165	0.10523833060004763	0.08779481980973675	0.20204370801036717	0.1182735758420802	0.24071986149190308	0.37815794629742405	0.3722029954618531	0.35677224935492746	0.42281899366551223	0.4762699017744006	0.6635448196292489	0.3552460152787036	0.39032094938754	0.8951532800895646	0.24754662016117768	0.34417151381302896	0.9776504947393581	0.26454887444595765	0.3758395830253428	1.0006560910136064	0.2836633253353292	0.4149413326062704	1.0038601508519418	0.04011386134409558	0.38963933295542763	0.354978900043875	-0.0764259854805694	0.4744556663353314	0.6224102631363678	0.033022588492426196	0.34053555131855584	0.8160289101518499	0.12215972423159394	0.28717407605906864	0.8712499188866354	0.12154260354686275	0.29377410681261473	0.8987104501352837	0.10151383960640628	0.32303833705311996	0.9239399342715992
111	1.85	0.3024820700447457	0.541980782665056	0.9558981992748138	0.29633405770768506	0.714851524122815	1.4108283307880887	0.2846054945505029	0.8947372468293622	1.815588145279784	0.30292152511041953	0.6739561890728895	1.8755177732533286	0.35830580958185465	0.7644114368893553	1.8895304605134775	0.270574768660113	0.9142612753017578	1.853192140405345	0.08238598466663641	0.5178982388706455	0.94786298476932	0.07021134289234904	0.7049569678849084	1.4033520467691691	0.06912184312451623	0.8800883809672123	1.8174861357090606	0.10690847414816496	0.7105181981101673	1.896099538843744	0.04447340919102971	0.7029293830987806	1.872581310982613	0.08774460619590418	0.9762939772908632	1.8961453651942493	0.20308373914439423	0.3367144209796794	0.2907428840360585	0.2087265560720347	0.10428603191477626	0.08672914456379065	0.2022700829389632	0.1194692519183938	0.24041050754665844	0.37915851677748863	0.372507330850916	0.35672424677436937	0.42288459629584174	0.4762706049484215	0.6644989475966185	0.3542540746638841	0.3865018578493306	0.8974388950966271	0.24710220717175108	0.34403515197802254	0.9781445428038392	0.2645148134294287	0.37583089276261233	1.0023374845187933	0.2836453774936399	0.41491691793108454	1.0039211943921245	0.040784219340142785	0.3882663155910829	0.35527622649797924	-0.07723246045671874	0.4734772492370404	0.6221361015772824	0.03299654865244444	0.34034335055414083	0.8149153891591279	0.12123431092430884	0.28633513039122804	0.8712330725556365	0.11997439636029984	0.28943301559580653	0.8967132505988981	0.1013744085836994	0.3215070550071767	0.923342592142149
112	1.8666666666666667	0.30240199227331155	0.5416437515420564	0.9555241699542829	0.2964379891723642	0.7147687015497005	1.411957740448248	0.28462365504782233	0.8947079553139854	1.8156834007544758	0.30267221898028934	0.6743165805883543	1.8771797677570956	0.3583030850742611	0.7645324600949406	1.8896160609023882	0.27060530400116783	0.9142728906846758	1.853272188916614	0.08241090277493408	0.5177432619317939	0.9478582092478006	0.07006915096013304	0.7051555365024229	1.402311022302129	0.06913172902326582	0.8794264049543484	1.8178070703045417	0.10692884624301278	0.7105051541961933	1.8960959822326517	0.04449431030041958	0.7029052700974778	1.8725906028696901	0.08642136573170343	0.9760113916132459	1.8933496066731452	0.20434594404775042	0.3363861182015415	0.28914940067130585	0.20860319193018761	0.10323215845810635	0.08559528363155831	0.20275026111238578	0.12216759683602413	0.23968623973482361	0.38049727998908356	0.3729853298479241	0.356549894737753	0.4229162840522777	0.4762403462175426	0.6649268930320753	0.35347087097838337	0.38362996321042914	0.8988518102126988	0.24615773536055657	0.34345255923088036	0.978182749537114	0.26474073842835166	0.3757695151694367	1.0033794410965138	0.28362344840738785	0.41495375851444405	1.0039089669755201	0.04235560382359231	0.3850905969188927	0.35580589554412023	-0.07760223625538168	0.47251632235544333	0.6212416785278372	0.03296247962447294	0.34009238796479246	0.8136326464243651	0.12005424999373131	0.28537573300095165	0.8712358209630248	0.11876356693473253	0.28459274877229007	0.8948696367885163	0.10192923338227035	0.3179296527440479	0.9226306425387683
113	1.8833333333333333	0.30227647237808875	0.5409465019917541	0.954486740224794	0.29657854321905247	0.7146409071408552	1.4133745836562288	0.2846419991458675	0.8946582499290952	1.8157061682337394	0.3024074625775237	0.6746403866948567	1.8797927219741575	0.35829720849940344	0.7646301752161377	1.8897077998794343	0.2706138812500037	0.9141760769528873	1.8533324342520585	0.08239698565203427	0.5177216421353864	0.9478225748333015	0.06988554532829722	0.7054027264981195	1.4008914795361567	0.06883485037773279	0.876522846919902	1.8185527073389338	0.10694087178756943	0.710462361825808	1.8960745738829092	0.04451320058135731	0.7028581189779506	1.872573851973624	0.08454316290897947	0.9759346490322036	1.8916702468731157	0.2052681644640994	0.3364144262028705	0.28819845556656465	0.2090977979457011	0.10388506268750651	0.0844181418311938	0.20335810841607999	0.1254626886205245	0.23855557307947117	0.3815320327440253	0.37334344288573706	0.35629171796894055	0.42292945609487986	0.47617898473062015	0.6650170451374091	0.35314138203609863	0.38250752536156013	0.8993263681558118	0.2449195091956735	0.34258543019129073	0.9780706235278377	0.2648211312856724	0.375819239722108	1.003736649214427	0.2836196335665496	0.41497874870247486	1.0039280179363128	0.044403411593539104	0.38094241903703613	0.35646112291667664	-0.07804178693783363	0.471300842292676	0.6200459929879765	0.032790313536212964	0.33866312013095506	0.8119852565901143	0.11915081806402893	0.2846347436902954	0.8711950143073972	0.11807300756815894	0.28110037847476327	0.8934958111766624	0.10273875822362584	0.3134436596894762	0.9218406244764717
